<svg width="400" height="400" viewBox="0 0 400 400" xmlns="http://www.w3.org/2000/svg">
  <!-- Background -->
  <rect width="400" height="400" fill="#f5f5f5"/>
  
  <!-- Left glove -->
  <g>
    <!-- Palm -->
    <path d="M80 180 Q70 160 80 140 Q90 120 110 120 Q130 120 140 140 Q150 160 140 180 L140 300 Q140 320 120 320 L100 320 Q80 320 80 300 Z" fill="#000000"/>
    
    <!-- Thumb -->
    <path d="M80 180 Q60 170 55 150 Q60 130 80 135 Q90 140 85 160 Q82 175 80 180" fill="#000000"/>
    
    <!-- Fingers -->
    <path d="M110 120 Q105 100 110 80 Q115 70 125 75 Q130 85 125 100 Q120 115 110 120" fill="#000000"/>
    <path d="M125 120 Q120 95 125 75 Q130 65 140 70 Q145 80 140 95 Q135 115 125 120" fill="#000000"/>
    <path d="M140 125 Q135 100 140 80 Q145 70 155 75 Q160 85 155 100 Q150 120 140 125" fill="#000000"/>
    <path d="M155 130 Q150 110 155 90 Q160 80 170 85 Q175 95 170 110 Q165 125 155 130" fill="#000000"/>
    
    <!-- Cuff -->
    <rect x="75" y="300" width="70" height="40" fill="#000000"/>
    <rect x="80" y="325" width="60" height="10" fill="#DC143C"/>
    
    <!-- Branding on palm -->
    <text x="110" y="220" font-family="Arial, sans-serif" font-size="8" font-weight="bold" text-anchor="middle" fill="#ffffff">DELUSIONAL</text>
    <text x="110" y="235" font-family="monospace" font-size="6" text-anchor="middle" fill="#DC143C">B1304504T</text>
    <text x="110" y="245" font-family="monospace" font-size="5" text-anchor="middle" fill="#888888">13/X</text>
    
    <!-- Safety symbols -->
    <circle cx="90" cy="260" r="8" fill="none" stroke="#ffffff" stroke-width="1"/>
    <text x="90" y="265" font-family="monospace" font-size="6" text-anchor="middle" fill="#ffffff">CE</text>
  </g>
  
  <!-- Right glove -->
  <g>
    <!-- Palm -->
    <path d="M320 180 Q330 160 320 140 Q310 120 290 120 Q270 120 260 140 Q250 160 260 180 L260 300 Q260 320 280 320 L300 320 Q320 320 320 300 Z" fill="#000000"/>
    
    <!-- Thumb -->
    <path d="M320 180 Q340 170 345 150 Q340 130 320 135 Q310 140 315 160 Q318 175 320 180" fill="#000000"/>
    
    <!-- Fingers -->
    <path d="M290 120 Q295 100 290 80 Q285 70 275 75 Q270 85 275 100 Q280 115 290 120" fill="#000000"/>
    <path d="M275 120 Q280 95 275 75 Q270 65 260 70 Q255 80 260 95 Q265 115 275 120" fill="#000000"/>
    <path d="M260 125 Q265 100 260 80 Q255 70 245 75 Q240 85 245 100 Q250 120 260 125" fill="#000000"/>
    <path d="M245 130 Q250 110 245 90 Q240 80 230 85 Q225 95 230 110 Q235 125 245 130" fill="#000000"/>
    
    <!-- Cuff -->
    <rect x="255" y="300" width="70" height="40" fill="#000000"/>
    <rect x="260" y="325" width="60" height="10" fill="#DC143C"/>
    
    <!-- Branding on palm -->
    <text x="290" y="220" font-family="Arial, sans-serif" font-size="8" font-weight="bold" text-anchor="middle" fill="#ffffff">DELUSIONAL</text>
    <text x="290" y="235" font-family="monospace" font-size="6" text-anchor="middle" fill="#DC143C">B1304504T</text>
    <text x="290" y="245" font-family="monospace" font-size="5" text-anchor="middle" fill="#888888">13/X</text>
    
    <!-- Safety symbols -->
    <circle cx="310" cy="260" r="8" fill="none" stroke="#ffffff" stroke-width="1"/>
    <text x="310" y="265" font-family="monospace" font-size="6" text-anchor="middle" fill="#ffffff">CE</text>
  </g>
  
  <!-- Nitrile coating texture -->
  <g opacity="0.3">
    <circle cx="110" cy="180" r="1" fill="#333333"/>
    <circle cx="120" cy="190" r="1" fill="#333333"/>
    <circle cx="100" cy="200" r="1" fill="#333333"/>
    <circle cx="290" cy="180" r="1" fill="#333333"/>
    <circle cx="280" cy="190" r="1" fill="#333333"/>
    <circle cx="300" cy="200" r="1" fill="#333333"/>
  </g>
</svg> 