<svg width="400" height="400" viewBox="0 0 400 400" xmlns="http://www.w3.org/2000/svg">
  <!-- Background -->
  <rect width="400" height="400" fill="#f5f5f5"/>
  
  <!-- Headband main band -->
  <ellipse cx="200" cy="200" rx="150" ry="30" fill="#000000"/>
  <ellipse cx="200" cy="195" rx="145" ry="25" fill="#0a0a0a"/>
  
  <!-- Inner padding -->
  <ellipse cx="200" cy="210" rx="140" ry="15" fill="#1a1a1a"/>
  
  <!-- Stitching lines -->
  <ellipse cx="200" cy="180" rx="135" ry="3" fill="none" stroke="#333333" stroke-width="1" opacity="0.6"/>
  <ellipse cx="200" cy="220" rx="135" ry="3" fill="none" stroke="#333333" stroke-width="1" opacity="0.6"/>
  
  <!-- Central logo area -->
  <rect x="170" y="185" width="60" height="30" fill="#0a0a0a" rx="5"/>
  <rect x="175" y="190" width="50" height="20" fill="#000000" rx="3"/>
  
  <!-- Logo text -->
  <text x="200" y="205" font-family="monospace" font-size="12" font-weight="bold" text-anchor="middle" fill="#DC143C">PSYCHO</text>
  
  <!-- Side decorative elements -->
  <circle cx="120" cy="200" r="8" fill="#1a1a1a"/>
  <circle cx="120" cy="200" r="4" fill="#DC143C"/>
  <circle cx="280" cy="200" r="8" fill="#1a1a1a"/>
  <circle cx="280" cy="200" r="4" fill="#DC143C"/>
  
  <!-- Velcro closure area -->
  <rect x="320" y="185" width="25" height="30" fill="#0a0a0a" rx="3"/>
  <g opacity="0.4">
    <rect x="322" y="187" width="2" height="26" fill="#333333"/>
    <rect x="325" y="187" width="2" height="26" fill="#333333"/>
    <rect x="328" y="187" width="2" height="26" fill="#333333"/>
    <rect x="331" y="187" width="2" height="26" fill="#333333"/>
    <rect x="334" y="187" width="2" height="26" fill="#333333"/>
    <rect x="337" y="187" width="2" height="26" fill="#333333"/>
    <rect x="340" y="187" width="2" height="26" fill="#333333"/>
  </g>
  
  <!-- Sweatband texture -->
  <g opacity="0.2">
    <path d="M80 200 Q200 180 320 200" stroke="#333333" stroke-width="1" fill="none"/>
    <path d="M80 205 Q200 185 320 205" stroke="#333333" stroke-width="1" fill="none"/>
    <path d="M80 195 Q200 175 320 195" stroke="#333333" stroke-width="1" fill="none"/>
  </g>
  
  <!-- Warning text -->
  <text x="200" y="250" font-family="monospace" font-size="8" text-anchor="middle" fill="#666666">CONTENTS UNDER PRESSURE</text>
  
  <!-- Shadow -->
  <ellipse cx="200" cy="280" rx="120" ry="20" fill="#cccccc" opacity="0.2"/>
</svg> 