<svg width="400" height="400" viewBox="0 0 400 400" xmlns="http://www.w3.org/2000/svg">
  <!-- Background -->
  <rect width="400" height="400" fill="#f5f5f5"/>
  
  <!-- Main scarf body -->
  <path d="M80 100 Q200 80 320 100 L320 300 Q200 320 80 300 Z" fill="#000000"/>
  <path d="M85 105 Q200 85 315 105 L315 295 Q200 315 85 295 Z" fill="#0a0a0a"/>
  
  <!-- Scarf texture/weave pattern -->
  <g opacity="0.2">
    <path d="M90 120 L310 120" stroke="#333333" stroke-width="1"/>
    <path d="M90 140 L310 140" stroke="#333333" stroke-width="1"/>
    <path d="M90 160 L310 160" stroke="#333333" stroke-width="1"/>
    <path d="M90 180 L310 180" stroke="#333333" stroke-width="1"/>
    <path d="M90 200 L310 200" stroke="#333333" stroke-width="1"/>
    <path d="M90 220 L310 220" stroke="#333333" stroke-width="1"/>
    <path d="M90 240 L310 240" stroke="#333333" stroke-width="1"/>
    <path d="M90 260 L310 260" stroke="#333333" stroke-width="1"/>
    <path d="M90 280 L310 280" stroke="#333333" stroke-width="1"/>
  </g>
  
  <!-- Central embroidered design -->
  <rect x="170" y="180" width="60" height="40" fill="#1a1a1a" rx="5"/>
  <text x="200" y="195" font-family="serif" font-size="10" font-style="italic" text-anchor="middle" fill="#DC143C">NIGHTMARE</text>
  <text x="200" y="210" font-family="serif" font-size="8" text-anchor="middle" fill="#888888">COLLECTION</text>
  
  <!-- Fringe at bottom -->
  <g>
    <!-- Individual fringe strands -->
    <line x1="90" y1="300" x2="90" y2="330" stroke="#000000" stroke-width="2"/>
    <line x1="100" y1="300" x2="100" y2="335" stroke="#000000" stroke-width="2"/>
    <line x1="110" y1="300" x2="110" y2="328" stroke="#000000" stroke-width="2"/>
    <line x1="120" y1="300" x2="120" y2="332" stroke="#000000" stroke-width="2"/>
    <line x1="130" y1="300" x2="130" y2="329" stroke="#000000" stroke-width="2"/>
    <line x1="140" y1="300" x2="140" y2="334" stroke="#000000" stroke-width="2"/>
    <line x1="150" y1="300" x2="150" y2="331" stroke="#000000" stroke-width="2"/>
    <line x1="160" y1="300" x2="160" y2="333" stroke="#000000" stroke-width="2"/>
    <line x1="170" y1="300" x2="170" y2="330" stroke="#000000" stroke-width="2"/>
    <line x1="180" y1="300" x2="180" y2="335" stroke="#000000" stroke-width="2"/>
    <line x1="190" y1="300" x2="190" y2="328" stroke="#000000" stroke-width="2"/>
    <line x1="200" y1="300" x2="200" y2="332" stroke="#000000" stroke-width="2"/>
    <line x1="210" y1="300" x2="210" y2="329" stroke="#000000" stroke-width="2"/>
    <line x1="220" y1="300" x2="220" y2="334" stroke="#000000" stroke-width="2"/>
    <line x1="230" y1="300" x2="230" y2="331" stroke="#000000" stroke-width="2"/>
    <line x1="240" y1="300" x2="240" y2="333" stroke="#000000" stroke-width="2"/>
    <line x1="250" y1="300" x2="250" y2="330" stroke="#000000" stroke-width="2"/>
    <line x1="260" y1="300" x2="260" y2="335" stroke="#000000" stroke-width="2"/>
    <line x1="270" y1="300" x2="270" y2="328" stroke="#000000" stroke-width="2"/>
    <line x1="280" y1="300" x2="280" y2="332" stroke="#000000" stroke-width="2"/>
    <line x1="290" y1="300" x2="290" y2="329" stroke="#000000" stroke-width="2"/>
    <line x1="300" y1="300" x2="300" y2="334" stroke="#000000" stroke-width="2"/>
    <line x1="310" y1="300" x2="310" y2="331" stroke="#000000" stroke-width="2"/>
  </g>
  
  <!-- Fringe at top -->
  <g>
    <line x1="90" y1="100" x2="90" y2="70" stroke="#000000" stroke-width="2"/>
    <line x1="100" y1="100" x2="100" y2="65" stroke="#000000" stroke-width="2"/>
    <line x1="110" y1="100" x2="110" y2="72" stroke="#000000" stroke-width="2"/>
    <line x1="120" y1="100" x2="120" y2="68" stroke="#000000" stroke-width="2"/>
    <line x1="130" y1="100" x2="130" y2="71" stroke="#000000" stroke-width="2"/>
    <line x1="140" y1="100" x2="140" y2="66" stroke="#000000" stroke-width="2"/>
    <line x1="150" y1="100" x2="150" y2="69" stroke="#000000" stroke-width="2"/>
    <line x1="160" y1="100" x2="160" y2="67" stroke="#000000" stroke-width="2"/>
    <line x1="170" y1="100" x2="170" y2="70" stroke="#000000" stroke-width="2"/>
    <line x1="180" y1="100" x2="180" y2="65" stroke="#000000" stroke-width="2"/>
    <line x1="190" y1="100" x2="190" y2="72" stroke="#000000" stroke-width="2"/>
    <line x1="200" y1="100" x2="200" y2="68" stroke="#000000" stroke-width="2"/>
    <line x1="210" y1="100" x2="210" y2="71" stroke="#000000" stroke-width="2"/>
    <line x1="220" y1="100" x2="220" y2="66" stroke="#000000" stroke-width="2"/>
    <line x1="230" y1="100" x2="230" y2="69" stroke="#000000" stroke-width="2"/>
    <line x1="240" y1="100" x2="240" y2="67" stroke="#000000" stroke-width="2"/>
    <line x1="250" y1="100" x2="250" y2="70" stroke="#000000" stroke-width="2"/>
    <line x1="260" y1="100" x2="260" y2="65" stroke="#000000" stroke-width="2"/>
    <line x1="270" y1="100" x2="270" y2="72" stroke="#000000" stroke-width="2"/>
    <line x1="280" y1="100" x2="280" y2="68" stroke="#000000" stroke-width="2"/>
    <line x1="290" y1="100" x2="290" y2="71" stroke="#000000" stroke-width="2"/>
    <line x1="300" y1="100" x2="300" y2="66" stroke="#000000" stroke-width="2"/>
    <line x1="310" y1="100" x2="310" y2="69" stroke="#000000" stroke-width="2"/>
  </g>
  
  <!-- Side decorative stitching -->
  <path d="M80 110 L80 290" stroke="#DC143C" stroke-width="2" opacity="0.7"/>
  <path d="M320 110 L320 290" stroke="#DC143C" stroke-width="2" opacity="0.7"/>
  
  <!-- Care label -->
  <rect x="290" y="270" width="20" height="15" fill="#1a1a1a"/>
  <text x="300" y="280" font-family="monospace" font-size="6" text-anchor="middle" fill="#666666">DC</text>
</svg> 